<svg width="39" height="35" viewBox="0 0 39 35" fill="none" xmlns="http://www.w3.org/2000/svg">
<path d="M35.3438 32.5H3.65625C1.63313 32.5 0 30.825 0 28.75V6.25C0 4.175 1.63313 2.5 3.65625 2.5H35.3438C37.3669 2.5 39 4.175 39 6.25V28.75C39 30.825 37.3669 32.5 35.3438 32.5ZM3.65625 5C2.97375 5 2.4375 5.55 2.4375 6.25V28.75C2.4375 29.45 2.97375 30 3.65625 30H35.3438C36.0262 30 36.5625 29.45 36.5625 28.75V6.25C36.5625 5.55 36.0262 5 35.3438 5H3.65625Z" fill="white"/>
<path d="M19.4998 22.4C17.7936 22.4 16.2336 21.7 15.0636 20.425L2.26672 6.47499C1.80359 5.97499 1.82797 5.17499 2.31547 4.69999C2.80297 4.22499 3.58297 4.24999 4.04609 4.74999L16.843 18.7C18.2323 20.225 20.7673 20.225 22.1567 18.7L34.9536 4.77499C35.4167 4.27499 36.1967 4.24999 36.6842 4.72499C37.1717 5.19999 37.1961 5.99999 36.733 6.49999L23.9361 20.45C22.7661 21.725 21.2061 22.425 19.4998 22.425V22.4Z" fill="white"/>
</svg>
