<svg width="47" height="47" viewBox="0 0 47 47" fill="none" xmlns="http://www.w3.org/2000/svg">
<path d="M23.5 4.40625C16.2021 4.40625 10.2812 10.0417 10.2812 16.9824C10.2812 24.9688 19.0938 37.6248 22.3296 41.9962C22.4639 42.1807 22.64 42.3308 22.8434 42.4344C23.0468 42.5379 23.2718 42.5919 23.5 42.5919C23.7282 42.5919 23.9532 42.5379 24.1566 42.4344C24.36 42.3308 24.5361 42.1807 24.6704 41.9962C27.9062 37.6266 36.7188 24.9752 36.7188 16.9824C36.7188 10.0417 30.7979 4.40625 23.5 4.40625Z" stroke="white" stroke-width="3" stroke-linecap="round" stroke-linejoin="round"/>
<path d="M23.5 22.0312C25.9335 22.0312 27.9062 20.0585 27.9062 17.625C27.9062 15.1915 25.9335 13.2188 23.5 13.2188C21.0665 13.2188 19.0938 15.1915 19.0938 17.625C19.0938 20.0585 21.0665 22.0312 23.5 22.0312Z" stroke="white" stroke-width="3" stroke-linecap="round" stroke-linejoin="round"/>
</svg>
