<svg width="47" height="47" viewBox="0 0 47 47" fill="none" xmlns="http://www.w3.org/2000/svg">
<path fill-rule="evenodd" clip-rule="evenodd" d="M11.2273 4.00087C13.6106 1.63128 17.5351 2.05232 19.5307 4.71957L22.0021 8.01741C23.6275 10.1872 23.4826 13.2187 21.5536 15.1359L21.0876 15.602C21.0349 15.7977 21.0296 16.0031 21.0719 16.2013C21.1953 17.0003 21.8631 18.6923 24.6596 21.4731C27.4561 24.2539 29.1598 24.9198 29.9706 25.0451C30.1746 25.0885 30.3862 25.0825 30.5874 25.0275L31.3864 24.2324C33.1019 22.5287 35.7339 22.2095 37.8568 23.3629L41.5972 25.3996C44.803 27.1386 45.6118 31.4939 42.9876 34.1044L40.2048 36.8695C39.3275 37.741 38.1486 38.4675 36.7111 38.6027C33.1666 38.9336 24.9083 38.5106 16.227 29.8802C8.12534 21.8237 6.57042 14.7972 6.37263 11.3348C6.27472 9.58407 7.10113 8.10357 8.15472 7.05782L11.2273 4.00087ZM17.1807 6.48012C16.1878 5.15432 14.3391 5.04857 13.2973 6.08453L10.2227 9.13953C9.57647 9.78187 9.26705 10.4908 9.30622 11.1684C9.46288 13.9198 10.7162 20.2589 18.2989 27.7985C26.2536 35.7063 33.5993 35.9432 36.4389 35.6769C37.0186 35.624 37.5943 35.3225 38.1329 34.7878L40.9137 32.0207C42.0456 30.8966 41.7969 28.8482 40.195 27.9787L36.4546 25.944C35.4206 25.3839 34.2103 25.568 33.4583 26.3161L32.5673 27.2032L31.5294 26.1614C32.5673 27.2032 32.5634 27.2052 32.5634 27.2052L32.5614 27.2091L32.5556 27.215L32.5418 27.2267L32.5125 27.2541C32.4292 27.3301 32.3402 27.3995 32.2461 27.4617C32.0895 27.5655 31.8819 27.681 31.6214 27.777C31.0927 27.9748 30.3916 28.0805 29.526 27.9474C27.8281 27.6869 25.578 26.5295 22.5876 23.5568C19.5992 20.584 18.4321 18.3476 18.1696 16.6517C18.0345 15.7861 18.1422 15.085 18.342 14.5563C18.4527 14.2591 18.6101 13.9815 18.8081 13.7338L18.8707 13.6652L18.8981 13.6359L18.9099 13.6241L18.9158 13.6182L18.9197 13.6143L19.4837 13.0542C20.3218 12.218 20.4393 10.8335 19.6501 9.77795L17.1807 6.48012Z" fill="white"/>
</svg>
